<?xml version="1.0" standalone="no"?>
<!DOCTYPE svg PUBLIC "-//W3C//DTD SVG 20010904//EN"
 "http://www.w3.org/TR/2001/REC-SVG-20010904/DTD/svg10.dtd">
<svg version="1.0" xmlns="http://www.w3.org/2000/svg"
 width="48.000000pt" height="48.000000pt" viewBox="0 0 48.000000 48.000000"
 preserveAspectRatio="xMidYMid meet">

<g transform="translate(0.000000,48.000000) scale(0.100000,-0.100000)"
fill="#6C3BAA" stroke="none">
<path d="M220 464 c-14 -2 -62 -11 -108 -20 -114 -23 -119 -30 -103 -168 14
-126 43 -236 67 -253 21 -15 37 -16 129 -3 109 16 175 38 184 61 9 27 -1 105
-14 102 -5 -1 -12 -24 -15 -49 -5 -44 -7 -48 -44 -61 -52 -17 -216 -37 -226
-26 -22 23 -69 306 -56 338 6 16 128 44 210 47 65 3 69 0 86 -69 7 -27 16 -43
26 -43 15 0 14 15 -8 90 -16 56 -40 66 -128 54z"/>
<path d="M410 422 c0 -5 9 -17 20 -27 11 -10 20 -24 20 -31 0 -26 -66 -88
-124 -115 -59 -28 -81 -30 -58 -7 17 17 15 38 -3 38 -17 0 -45 -49 -45 -79 0
-22 45 -51 80 -51 29 0 25 17 -7 28 l-28 10 48 21 c75 32 133 77 151 115 19
41 13 82 -14 96 -23 12 -40 13 -40 2z"/>
</g>
</svg>
